<?xml version="1.0" encoding="UTF-8"?>
<svg version="1.1" viewBox="0 0 660 660" xmlns="http://www.w3.org/2000/svg" xmlns:cc="http://creativecommons.org/ns#" xmlns:dc="http://purl.org/dc/elements/1.1/" xmlns:rdf="http://www.w3.org/1999/02/22-rdf-syntax-ns#" xmlns:xlink="http://www.w3.org/1999/xlink">
<defs>
<linearGradient id="a">
<stop stop-color="#f00" offset="0"/>
<stop stop-color="#fe2b00" offset=".027778"/>
<stop stop-color="#fe5400" offset=".055556"/>
<stop stop-color="#fe7f00" offset=".083333"/>
<stop stop-color="#feaa00" offset=".11111"/>
<stop stop-color="#fed400" offset=".13889"/>
<stop stop-color="#fcfd00" offset=".16667"/>
<stop stop-color="#d3fe00" offset=".19444"/>
<stop stop-color="#a9fe00" offset=".22222"/>
<stop stop-color="#7dfe00" offset=".25"/>
<stop stop-color="#52fe00" offset=".27778"/>
<stop stop-color="#29fe00" offset=".30556"/>
<stop stop-color="#00fe02" offset=".33333"/>
<stop stop-color="#00fe2d" offset=".36111"/>
<stop stop-color="#00fe56" offset=".38889"/>
<stop stop-color="#00fe82" offset=".41667"/>
<stop stop-color="#00fead" offset=".44444"/>
<stop stop-color="#00fed6" offset=".47222"/>
<stop stop-color="#00fbfe" offset=".5"/>
<stop stop-color="#00d0fe" offset=".52778"/>
<stop stop-color="#00a7fe" offset=".55556"/>
<stop stop-color="#007afe" offset=".58333"/>
<stop stop-color="#0050fe" offset=".61111"/>
<stop stop-color="#0026fe" offset=".63889"/>
<stop stop-color="#0500fe" offset=".66667"/>
<stop stop-color="#3000fe" offset=".69444"/>
<stop stop-color="#5900fe" offset=".72222"/>
<stop stop-color="#8500fe" offset=".75"/>
<stop stop-color="#b000fe" offset=".77778"/>
<stop stop-color="#d900fe" offset=".80556"/>
<stop stop-color="#fe00f9" offset=".83333"/>
<stop stop-color="#fe00ce" offset=".86111"/>
<stop stop-color="#fe00a4" offset=".88889"/>
<stop stop-color="#fe0079" offset=".91667"/>
<stop stop-color="#fe004e" offset=".94444"/>
<stop stop-color="#fe0025" offset=".97222"/>
<stop stop-color="#f00" offset="1"/>
</linearGradient>
<filter id="ar" color-interpolation-filters="sRGB">
<feTurbulence baseFrequency="1" numOctaves="10" result="result2" type="fractalNoise"/>
<feTurbulence baseFrequency="1" numOctaves="10" result="result1" type="fractalNoise"/>
<feDisplacementMap in="result2" in2="result1" result="result3" scale="36" xChannelSelector="R" yChannelSelector="G"/>
<feDisplacementMap in="SourceGraphic" in2="result3" result="result5" scale="50" xChannelSelector="B" yChannelSelector="G"/>
<feDisplacementMap in="SourceGraphic" in2="result3" result="result4" scale="100" xChannelSelector="B"/>
<feComposite in="result5" in2="SourceGraphic" result="result6"/>
<feComposite in="result4" in2="result6" result="result7"/>
<feComposite in2="SourceGraphic" operator="in" result="result13"/>
<feGaussianBlur result="result8" scale="23.699999999999999" stdDeviation="12"/>
<feComposite in2="result3" operator="in" result="result9"/>
<feDisplacementMap in2="result1" result="result10" scale="36" xChannelSelector="R" yChannelSelector="G"/>
<feComposite in2="result8" result="result11"/>
<feDisplacementMap in2="result3" result="result12" scale="23.708920187793428" xChannelSelector="B"/>
<feComposite in2="result13" result="result14"/>
<feComposite in2="SourceGraphic" operator="in"/>
</filter>
<linearGradient id="aq" x1="1749.7" x2="12550" y1="-356.56" y2="-356.56" gradientTransform="matrix(1.1 0 0 1.1 -1624.6 1144.6)" gradientUnits="userSpaceOnUse" xlink:href="#a"/>
<linearGradient id="ap" x1="1749.7" x2="12550" y1="-356.56" y2="-356.56" gradientTransform="matrix(1.0833 .19101 -.19101 1.0833 -1988.5 747.12)" gradientUnits="userSpaceOnUse" xlink:href="#a"/>
<linearGradient id="ao" x1="1749.7" x2="12550" y1="-356.56" y2="-356.56" gradientTransform="matrix(1.0337 .37622 -.37622 1.0337 -2262.9 236.94)" gradientUnits="userSpaceOnUse" xlink:href="#a"/>
<linearGradient id="an" x1="1749.7" x2="12550" y1="-356.56" y2="-356.56" gradientTransform="matrix(.95263 .55 -.55 .95263 -2420.2 -365.27)" gradientUnits="userSpaceOnUse" xlink:href="#a"/>
<linearGradient id="am" x1="1749.7" x2="12550" y1="-356.56" y2="-356.56" gradientTransform="matrix(.84265 .70707 -.70707 .84265 -2437.6 -1032.8)" gradientUnits="userSpaceOnUse" xlink:href="#a"/>
<linearGradient id="al" x1="1749.7" x2="12550" y1="-356.56" y2="-356.56" gradientTransform="matrix(.70707 .84265 -.84265 .70707 -2298.2 -1733.8)" gradientUnits="userSpaceOnUse" xlink:href="#a"/>
<linearGradient id="ak" x1="1749.7" x2="12550" y1="-356.56" y2="-356.56" gradientTransform="matrix(.55 .95263 -.95263 .55 -1992 -2433)" gradientUnits="userSpaceOnUse" xlink:href="#a"/>
<linearGradient id="aj" x1="1749.7" x2="12550" y1="-356.56" y2="-356.56" gradientTransform="matrix(.37622 1.0337 -1.0337 .37622 -1516.9 -3092.7)" gradientUnits="userSpaceOnUse" xlink:href="#a"/>
<linearGradient id="ai" x1="1749.7" x2="12550" y1="-356.56" y2="-356.56" gradientTransform="matrix(.19101 1.0833 -1.0833 .19101 -878.89 -3674.8)" gradientUnits="userSpaceOnUse" xlink:href="#a"/>
<linearGradient id="ah" x1="1749.7" x2="12550" y1="-356.56" y2="-356.56" gradientTransform="matrix(6.7353e-17 1.1 -1.1 6.7353e-17 -92.207 -4142.2)" gradientUnits="userSpaceOnUse" xlink:href="#a"/>
<linearGradient id="ag" x1="1749.7" x2="12550" y1="-356.56" y2="-356.56" gradientTransform="matrix(-.19101 1.0833 -1.0833 -.19101 821 -4461)" gradientUnits="userSpaceOnUse" xlink:href="#a"/>
<linearGradient id="af" x1="1749.7" x2="12550" y1="-356.56" y2="-356.56" gradientTransform="matrix(-.37622 1.0337 -1.0337 -.37622 1831.2 -4601.4)" gradientUnits="userSpaceOnUse" xlink:href="#a"/>
<linearGradient id="ae" x1="1749.7" x2="12550" y1="-356.56" y2="-356.56" gradientTransform="matrix(-.55 .95263 -.95263 -.55 2902.6 -4540)" gradientUnits="userSpaceOnUse" xlink:href="#a"/>
<linearGradient id="ad" x1="1749.7" x2="12550" y1="-356.56" y2="-356.56" gradientTransform="matrix(-.70707 .84265 -.84265 -.70707 3994.2 -4260.4)" gradientUnits="userSpaceOnUse" xlink:href="#a"/>
<linearGradient id="ac" x1="1749.7" x2="12550" y1="-356.56" y2="-356.56" gradientTransform="matrix(-.84265 .70707 -.70707 -.84265 5061.4 -3754.9)" gradientUnits="userSpaceOnUse" xlink:href="#a"/>
<linearGradient id="ab" x1="1749.7" x2="12550" y1="-356.56" y2="-356.56" gradientTransform="matrix(-.95263 .55 -.55 -.95263 6057.5 -3024.6)" gradientUnits="userSpaceOnUse" xlink:href="#a"/>
<linearGradient id="aa" x1="1749.7" x2="12550" y1="-356.56" y2="-356.56" gradientTransform="matrix(-1.0337 .37622 -.37622 -1.0337 6936 -2080.3)" gradientUnits="userSpaceOnUse" xlink:href="#a"/>
<linearGradient id="z" x1="1749.7" x2="12550" y1="-356.56" y2="-356.56" gradientTransform="matrix(-1.0833 .19101 -.19101 -1.0833 7652.1 -942.26)" gradientUnits="userSpaceOnUse" xlink:href="#a"/>
<linearGradient id="y" x1="1749.7" x2="12550" y1="-356.56" y2="-356.56" gradientTransform="matrix(-1.1 1.3471e-16 -1.3471e-16 -1.1 8164.6 360.15)" gradientUnits="userSpaceOnUse" xlink:href="#a"/>
<linearGradient id="x" x1="1749.7" x2="12550" y1="-356.56" y2="-356.56" gradientTransform="matrix(-1.0833 -.19101 .19101 -1.0833 8438.2 1789.1)" gradientUnits="userSpaceOnUse" xlink:href="#a"/>
<linearGradient id="w" x1="1749.7" x2="12550" y1="-356.56" y2="-356.56" gradientTransform="matrix(-1.0337 -.37622 .37622 -1.0337 8444.7 3299.4)" gradientUnits="userSpaceOnUse" xlink:href="#a"/>
<linearGradient id="v" x1="1749.7" x2="12550" y1="-356.56" y2="-356.56" gradientTransform="matrix(-.95263 -.55 .55 -.95263 8164.4 4840)" gradientUnits="userSpaceOnUse" xlink:href="#a"/>
<linearGradient id="u" x1="1749.7" x2="12550" y1="-356.56" y2="-356.56" gradientTransform="matrix(-.84265 -.70707 .70707 -.84265 7587.9 6355.7)" gradientUnits="userSpaceOnUse" xlink:href="#a"/>
<linearGradient id="t" x1="1749.7" x2="12550" y1="-356.56" y2="-356.56" gradientTransform="matrix(-.70707 -.84265 .84265 -.70707 6716.3 7788.9)" gradientUnits="userSpaceOnUse" xlink:href="#a"/>
<linearGradient id="s" x1="1749.7" x2="12550" y1="-356.56" y2="-356.56" gradientTransform="matrix(-.55 -.95263 .95263 -.55 5562 9081.9)" gradientUnits="userSpaceOnUse" xlink:href="#a"/>
<linearGradient id="r" x1="1749.7" x2="12550" y1="-356.56" y2="-356.56" gradientTransform="matrix(-.37622 -1.0337 1.0337 -.37622 4148.5 10179)" gradientUnits="userSpaceOnUse" xlink:href="#a"/>
<linearGradient id="q" x1="1749.7" x2="12550" y1="-356.56" y2="-356.56" gradientTransform="matrix(-.19101 -1.0833 1.0833 -.19101 2510.4 11029)" gradientUnits="userSpaceOnUse" xlink:href="#a"/>
<linearGradient id="p" x1="1749.7" x2="12550" y1="-356.56" y2="-356.56" gradientTransform="matrix(6.7353e-17 -1.1 1.1 6.7353e-17 692.23 11587)" gradientUnits="userSpaceOnUse" xlink:href="#a"/>
<linearGradient id="o" x1="1749.7" x2="12550" y1="-356.56" y2="-356.56" gradientTransform="matrix(.19101 -1.0833 1.0833 .19101 -1252.4 11815)" gradientUnits="userSpaceOnUse" xlink:href="#a"/>
<linearGradient id="n" x1="1749.7" x2="12550" y1="-356.56" y2="-356.56" gradientTransform="matrix(.37622 -1.0337 1.0337 .37622 -3262.8 11688)" gradientUnits="userSpaceOnUse" xlink:href="#a"/>
<linearGradient id="m" x1="1749.7" x2="12550" y1="-356.56" y2="-356.56" gradientTransform="matrix(.55 -.95263 .95263 .55 -5272.6 11189)" gradientUnits="userSpaceOnUse" xlink:href="#a"/>
<linearGradient id="l" x1="1749.7" x2="12550" y1="-356.56" y2="-356.56" gradientTransform="matrix(.70707 -.84265 .84265 .70707 -7212.4 10315)" gradientUnits="userSpaceOnUse" xlink:href="#a"/>
<linearGradient id="k" x1="1749.7" x2="12550" y1="-356.56" y2="-356.56" gradientTransform="matrix(.84265 -.70707 .70707 .84265 -9011.6 9077.8)" gradientUnits="userSpaceOnUse" xlink:href="#a"/>
<linearGradient id="j" x1="1749.7" x2="12550" y1="-356.56" y2="-356.56" gradientTransform="matrix(.95263 -.55 .55 .95263 -10602 7499.3)" gradientUnits="userSpaceOnUse" xlink:href="#a"/>
<linearGradient id="i" x1="1749.7" x2="12550" y1="-356.56" y2="-356.56" gradientTransform="matrix(1.0337 -.37622 .37622 1.0337 -11918 5616.7)" gradientUnits="userSpaceOnUse" xlink:href="#a"/>
<linearGradient id="h" x1="1749.7" x2="12550" y1="-356.56" y2="-356.56" gradientTransform="matrix(1.0833 -.19101 .19101 1.0833 -12902 3478.5)" gradientUnits="userSpaceOnUse" xlink:href="#a"/>
<linearGradient id="g" x1="1749.7" x2="12550" y1="-356.56" y2="-356.56" gradientTransform="matrix(1.1 0 0 1.1 -1624.6 1144.6)" gradientUnits="userSpaceOnUse" xlink:href="#a"/>
<linearGradient id="f" x1="1749.7" x2="12550" y1="-356.56" y2="-356.56" gradientTransform="matrix(1.0833 .19101 -.19101 1.0833 -1988.5 747.12)" gradientUnits="userSpaceOnUse" xlink:href="#a"/>
<linearGradient id="e" x1="1749.7" x2="12550" y1="-356.56" y2="-356.56" gradientTransform="matrix(1.0337 .37622 -.37622 1.0337 -2262.9 236.94)" gradientUnits="userSpaceOnUse" xlink:href="#a"/>
<linearGradient id="d" x1="1749.7" x2="12550" y1="-356.56" y2="-356.56" gradientTransform="matrix(.95263 .55 -.55 .95263 -2420.2 -365.27)" gradientUnits="userSpaceOnUse" xlink:href="#a"/>
<linearGradient id="c" x1="1749.7" x2="12550" y1="-356.56" y2="-356.56" gradientTransform="matrix(.84265 .70707 -.70707 .84265 -2437.6 -1032.8)" gradientUnits="userSpaceOnUse" xlink:href="#a"/>
<linearGradient id="b" x1="1749.7" x2="12550" y1="-356.56" y2="-356.56" gradientTransform="matrix(.70707 .84265 -.84265 .70707 -2298.2 -1733.8)" gradientUnits="userSpaceOnUse" xlink:href="#a"/>
</defs>
<metadata>
<rdf:RDF>
<cc:Work rdf:about="">
<dc:format>image/svg+xml</dc:format>
<dc:type rdf:resource="http://purl.org/dc/dcmitype/StillImage"/>
<dc:title/>
<dc:date>2017</dc:date>
<dc:creator>
<cc:Agent>
<dc:title>Lazur URH</dc:title>
</cc:Agent>
</dc:creator>
</cc:Work>
</rdf:RDF>
</metadata>
<g transform="translate(30 -422.36)" shape-rendering="auto">
<g fill-rule="evenodd" filter="url(#ar)">
<path d="m300 422.36c19.174 0 38.421 1.6839 57.304 5.0134 18.883 3.3296 37.545 8.33 55.563 14.888 18.018 6.558 35.528 14.723 52.133 24.31 16.605 9.5871 32.432 20.669 47.12 32.994 14.688 12.325 28.35 25.986 40.675 40.675 12.325 14.688 23.407 30.515 32.994 47.12 9.5871 16.605 17.752 34.115 24.31 52.133 6.558 18.018 11.558 36.68 14.888 55.563 3.3296 18.883 5.0134 38.13 5.0134 57.304 0 19.174-1.6839 38.421-5.0134 57.304-3.3296 18.883-8.33 37.545-14.888 55.563-6.558 18.018-14.723 35.528-24.31 52.133-9.5871 16.605-20.669 32.432-32.994 47.12-12.325 14.688-25.986 28.35-40.675 40.675-14.688 12.325-30.515 23.407-47.12 32.994-16.605 9.5871-34.115 17.752-52.133 24.31-18.018 6.558-36.68 11.558-55.563 14.888-18.883 3.3296-38.13 5.0134-57.304 5.0134v-330z" color="#000000" color-rendering="auto" fill="url(#aq)" image-rendering="auto" solid-color="#000000" style="isolation:auto;mix-blend-mode:normal"/>
<path d="m357.3 427.38c18.883 3.3296 37.545 8.33 55.563 14.888 18.018 6.558 35.528 14.723 52.133 24.31 16.605 9.5871 32.432 20.669 47.12 32.994 14.688 12.325 28.35 25.986 40.675 40.675 12.325 14.688 23.407 30.515 32.994 47.12 9.5871 16.605 17.752 34.115 24.31 52.133 6.558 18.018 11.558 36.68 14.888 55.563 3.3296 18.883 5.0134 38.13 5.0134 57.304 4.8e-12 19.174-1.6839 38.421-5.0134 57.304-3.3296 18.883-8.33 37.545-14.888 55.563-6.558 18.018-14.723 35.528-24.31 52.133-9.5871 16.605-20.669 32.432-32.994 47.12-12.325 14.688-25.986 28.35-40.675 40.675-14.688 12.325-30.515 23.407-47.12 32.994-16.605 9.5871-34.115 17.752-52.133 24.31-18.018 6.558-36.68 11.558-55.563 14.888-18.883 3.3296-38.13 5.0134-57.304 5.0134-19.174 1e-12 -38.421-1.6839-57.304-5.0134l57.304-324.99z" color="#000000" color-rendering="auto" fill="url(#ap)" image-rendering="auto" solid-color="#000000" style="isolation:auto;mix-blend-mode:normal"/>
<path d="m412.87 442.26c18.018 6.558 35.528 14.723 52.133 24.31 16.605 9.5871 32.432 20.669 47.12 32.994 14.688 12.325 28.35 25.986 40.675 40.675 12.325 14.688 23.407 30.515 32.994 47.12 9.5871 16.605 17.752 34.115 24.31 52.133 6.558 18.018 11.558 36.68 14.888 55.563 3.3296 18.883 5.0134 38.13 5.0134 57.304 0 19.174-1.6839 38.421-5.0134 57.304-3.3296 18.883-8.33 37.545-14.888 55.563-6.558 18.018-14.723 35.528-24.31 52.133-9.5871 16.605-20.669 32.432-32.994 47.12-12.325 14.688-25.986 28.35-40.675 40.675-14.688 12.325-30.515 23.407-47.12 32.994-16.605 9.5871-34.115 17.752-52.133 24.31-18.018 6.558-36.68 11.558-55.563 14.888-18.883 3.3296-38.13 5.0134-57.304 5.0134-19.174 2e-12 -38.421-1.6839-57.304-5.0134-18.883-3.3296-37.545-8.33-55.563-14.888l112.87-310.1z" color="#000000" color-rendering="auto" fill="url(#ao)" image-rendering="auto" solid-color="#000000" style="isolation:auto;mix-blend-mode:normal"/>
<path d="m465 466.57c16.605 9.5871 32.432 20.669 47.12 32.994 14.688 12.325 28.35 25.986 40.675 40.675 12.325 14.688 23.407 30.515 32.994 47.12 9.5871 16.605 17.752 34.115 24.31 52.133 6.558 18.018 11.558 36.68 14.888 55.563 3.3296 18.883 5.0134 38.13 5.0134 57.304 0 19.174-1.6839 38.421-5.0134 57.304-3.3296 18.883-8.33 37.545-14.888 55.563-6.558 18.018-14.723 35.528-24.31 52.133-9.5871 16.605-20.669 32.432-32.994 47.12-12.325 14.688-25.986 28.35-40.675 40.675-14.688 12.325-30.515 23.407-47.12 32.994-16.605 9.5871-34.115 17.752-52.133 24.31-18.018 6.558-36.68 11.558-55.563 14.888-18.883 3.3296-38.13 5.0134-57.304 5.0134-19.174 0-38.421-1.6839-57.304-5.0134-18.883-3.3296-37.545-8.33-55.563-14.888-18.018-6.558-35.528-14.723-52.133-24.31l165-285.79z" color="#000000" color-rendering="auto" fill="url(#an)" image-rendering="auto" solid-color="#000000" style="isolation:auto;mix-blend-mode:normal"/>
<path d="m512.12 499.57c14.688 12.325 28.35 25.986 40.675 40.675 12.325 14.688 23.407 30.515 32.994 47.12 9.5871 16.605 17.752 34.115 24.31 52.133 6.558 18.018 11.558 36.68 14.888 55.563 3.3296 18.883 5.0134 38.13 5.0134 57.304-9e-13 19.174-1.6839 38.421-5.0134 57.304-3.3296 18.883-8.33 37.545-14.888 55.563-6.558 18.018-14.723 35.528-24.31 52.133-9.5871 16.605-20.669 32.432-32.994 47.12-12.325 14.688-25.986 28.35-40.675 40.675-14.688 12.325-30.515 23.407-47.12 32.994-16.605 9.5871-34.115 17.752-52.133 24.31-18.018 6.558-36.68 11.558-55.563 14.888-18.883 3.3296-38.13 5.0134-57.304 5.0134-19.174 0-38.421-1.6839-57.304-5.0134-18.883-3.3296-37.545-8.33-55.563-14.888-18.018-6.558-35.528-14.723-52.133-24.31-16.605-9.5871-32.432-20.669-47.12-32.994l212.12-252.79z" color="#000000" color-rendering="auto" fill="url(#am)" image-rendering="auto" solid-color="#000000" style="isolation:auto;mix-blend-mode:normal"/>
<path d="m552.79 540.24c12.325 14.688 23.407 30.515 32.994 47.12 9.5871 16.605 17.752 34.115 24.31 52.133 6.558 18.018 11.558 36.68 14.888 55.563 3.3296 18.883 5.0134 38.13 5.0134 57.304 0 19.174-1.6839 38.421-5.0134 57.304-3.3296 18.883-8.33 37.545-14.888 55.563-6.558 18.018-14.723 35.528-24.31 52.133-9.5871 16.605-20.669 32.432-32.994 47.12-12.325 14.688-25.986 28.35-40.675 40.675-14.688 12.325-30.515 23.407-47.12 32.994-16.605 9.5871-34.115 17.752-52.133 24.31-18.018 6.558-36.68 11.558-55.563 14.888-18.883 3.3296-38.13 5.0134-57.304 5.0134-19.174 0-38.421-1.6839-57.304-5.0134-18.883-3.3296-37.545-8.33-55.563-14.888-18.018-6.558-35.528-14.723-52.133-24.31-16.605-9.5871-32.432-20.669-47.12-32.994-14.688-12.325-28.35-25.986-40.675-40.675l252.79-212.12z" color="#000000" color-rendering="auto" fill="url(#al)" image-rendering="auto" solid-color="#000000" style="isolation:auto;mix-blend-mode:normal"/>
<path d="m585.79 587.36c9.5871 16.605 17.752 34.115 24.31 52.133 6.558 18.018 11.558 36.68 14.888 55.563 3.3296 18.883 5.0134 38.13 5.0134 57.304 0 19.174-1.6839 38.421-5.0134 57.304-3.3296 18.883-8.33 37.545-14.888 55.563-6.558 18.018-14.723 35.528-24.31 52.133-9.5871 16.605-20.669 32.432-32.994 47.12-12.325 14.688-25.986 28.35-40.675 40.675-14.688 12.325-30.515 23.407-47.12 32.994-16.605 9.5871-34.115 17.752-52.133 24.31-18.018 6.558-36.68 11.558-55.563 14.888-18.883 3.3296-38.13 5.0134-57.304 5.0134-19.174 5e-12 -38.421-1.6839-57.304-5.0134-18.883-3.3296-37.545-8.33-55.563-14.888-18.018-6.558-35.528-14.723-52.133-24.31-16.605-9.5871-32.432-20.669-47.12-32.994-14.688-12.325-28.35-25.986-40.675-40.675-12.325-14.688-23.407-30.515-32.994-47.12l285.79-165z" color="#000000" color-rendering="auto" fill="url(#ak)" image-rendering="auto" solid-color="#000000" style="isolation:auto;mix-blend-mode:normal"/>
<path d="m610.1 639.5c6.558 18.018 11.558 36.68 14.888 55.563 3.3296 18.883 5.0134 38.13 5.0134 57.304 9e-13 19.174-1.6839 38.421-5.0134 57.304-3.3296 18.883-8.33 37.545-14.888 55.563-6.558 18.018-14.723 35.528-24.31 52.133-9.5871 16.605-20.669 32.432-32.994 47.12-12.325 14.688-25.986 28.35-40.675 40.675-14.688 12.325-30.515 23.407-47.12 32.994-16.605 9.5871-34.115 17.752-52.133 24.31-18.018 6.558-36.68 11.558-55.563 14.888-18.883 3.3296-38.13 5.0134-57.304 5.0134-19.174 0-38.421-1.6839-57.304-5.0134-18.883-3.3296-37.545-8.33-55.563-14.888-18.018-6.558-35.528-14.723-52.133-24.31-16.605-9.5871-32.432-20.669-47.12-32.994-14.688-12.325-28.35-25.986-40.675-40.675-12.325-14.688-23.407-30.515-32.994-47.12-9.5871-16.605-17.752-34.115-24.31-52.133l310.1-112.87z" color="#000000" color-rendering="auto" fill="url(#aj)" image-rendering="auto" solid-color="#000000" style="isolation:auto;mix-blend-mode:normal"/>
<path d="m624.99 695.06c3.3296 18.883 5.0134 38.13 5.0134 57.304-1e-12 19.174-1.6839 38.421-5.0134 57.304-3.3296 18.883-8.33 37.545-14.888 55.563-6.558 18.018-14.723 35.528-24.31 52.133-9.5871 16.605-20.669 32.432-32.994 47.12-12.325 14.688-25.986 28.35-40.675 40.675-14.688 12.325-30.515 23.407-47.12 32.994-16.605 9.5871-34.115 17.752-52.133 24.31-18.018 6.558-36.68 11.558-55.563 14.888-18.883 3.3296-38.13 5.0134-57.304 5.0134-19.174 3e-12 -38.421-1.6839-57.304-5.0134-18.883-3.3296-37.545-8.33-55.563-14.888-18.018-6.558-35.528-14.723-52.133-24.31-16.605-9.5871-32.432-20.669-47.12-32.994-14.688-12.325-28.35-25.986-40.675-40.675-12.325-14.688-23.407-30.515-32.994-47.12-9.5871-16.605-17.752-34.115-24.31-52.133-6.558-18.018-11.558-36.68-14.888-55.563l324.99-57.304z" color="#000000" color-rendering="auto" fill="url(#ai)" image-rendering="auto" solid-color="#000000" style="isolation:auto;mix-blend-mode:normal"/>
<path d="m630 752.36c0 19.174-1.6839 38.421-5.0134 57.304-3.3296 18.883-8.33 37.545-14.888 55.563-6.558 18.018-14.723 35.528-24.31 52.133-9.5871 16.605-20.669 32.432-32.994 47.12-12.325 14.688-25.986 28.35-40.675 40.675-14.688 12.325-30.515 23.407-47.12 32.994-16.605 9.5871-34.115 17.752-52.133 24.31-18.018 6.558-36.68 11.558-55.563 14.888-18.883 3.3296-38.13 5.0134-57.304 5.0134-19.174 0-38.421-1.6839-57.304-5.0134-18.883-3.3296-37.545-8.33-55.563-14.888-18.018-6.558-35.528-14.723-52.133-24.31-16.605-9.5871-32.432-20.669-47.12-32.994-14.688-12.325-28.35-25.986-40.675-40.675-12.325-14.688-23.407-30.515-32.994-47.12-9.5871-16.605-17.752-34.115-24.31-52.133-6.558-18.018-11.558-36.68-14.888-55.563-3.3296-18.883-5.0134-38.13-5.0134-57.304h330z" color="#000000" color-rendering="auto" fill="url(#ah)" image-rendering="auto" solid-color="#000000" style="isolation:auto;mix-blend-mode:normal"/>
<path d="m624.99 809.67c-3.3296 18.883-8.33 37.545-14.888 55.563-6.558 18.018-14.723 35.528-24.31 52.133-9.5871 16.605-20.669 32.432-32.994 47.12-12.325 14.688-25.986 28.35-40.675 40.675-14.688 12.325-30.515 23.407-47.12 32.994-16.605 9.5871-34.115 17.752-52.133 24.31-18.018 6.558-36.68 11.558-55.563 14.888-18.883 3.3296-38.13 5.0134-57.304 5.0134-19.174 0-38.421-1.6839-57.304-5.0134-18.883-3.3296-37.545-8.33-55.563-14.888-18.018-6.558-35.528-14.723-52.133-24.31-16.605-9.5871-32.432-20.669-47.12-32.994-14.688-12.325-28.35-25.986-40.675-40.675-12.325-14.688-23.407-30.515-32.994-47.12-9.5871-16.605-17.752-34.115-24.31-52.133-6.558-18.018-11.558-36.68-14.888-55.563-3.3296-18.883-5.0134-38.13-5.0134-57.304 0-19.174 1.6839-38.421 5.0134-57.304l324.99 57.304z" color="#000000" color-rendering="auto" fill="url(#ag)" image-rendering="auto" solid-color="#000000" style="isolation:auto;mix-blend-mode:normal"/>
<path d="m610.1 865.23c-6.558 18.018-14.723 35.528-24.31 52.133-9.5871 16.605-20.669 32.432-32.994 47.12-12.325 14.688-25.986 28.35-40.675 40.675-14.688 12.325-30.515 23.407-47.12 32.994-16.605 9.5871-34.115 17.752-52.133 24.31-18.018 6.558-36.68 11.558-55.563 14.888-18.883 3.3296-38.13 5.0134-57.304 5.0134-19.174-9e-13 -38.421-1.6839-57.304-5.0134-18.883-3.3296-37.545-8.33-55.563-14.888-18.018-6.558-35.528-14.723-52.133-24.31-16.605-9.5871-32.432-20.669-47.12-32.994-14.688-12.325-28.35-25.986-40.675-40.675-12.325-14.688-23.407-30.515-32.994-47.12-9.5871-16.605-17.752-34.115-24.31-52.133-6.558-18.018-11.558-36.68-14.888-55.563-3.3296-18.883-5.0134-38.13-5.0134-57.304-5.45e-12 -19.174 1.6839-38.421 5.0134-57.304 3.3296-18.883 8.33-37.545 14.888-55.563l310.1 112.87z" color="#000000" color-rendering="auto" fill="url(#af)" image-rendering="auto" solid-color="#000000" style="isolation:auto;mix-blend-mode:normal"/>
<path d="m585.79 917.36c-9.5871 16.605-20.669 32.432-32.994 47.12-12.325 14.688-25.986 28.35-40.675 40.675-14.688 12.325-30.515 23.407-47.12 32.994-16.605 9.5871-34.115 17.752-52.133 24.31-18.018 6.558-36.68 11.558-55.563 14.888-18.883 3.3296-38.13 5.0134-57.304 5.0134-19.174-2e-12 -38.421-1.6839-57.304-5.0134-18.883-3.3296-37.545-8.33-55.563-14.888-18.018-6.558-35.528-14.723-52.133-24.31-16.605-9.5871-32.432-20.669-47.12-32.994-14.688-12.325-28.35-25.986-40.675-40.675-12.325-14.688-23.407-30.515-32.994-47.12-9.5871-16.605-17.752-34.115-24.31-52.133-6.558-18.018-11.558-36.68-14.888-55.563-3.3296-18.883-5.0134-38.13-5.0134-57.304 0-19.174 1.6839-38.421 5.0134-57.304 3.3296-18.883 8.33-37.545 14.888-55.563 6.558-18.018 14.723-35.528 24.31-52.133l285.79 165z" color="#000000" color-rendering="auto" fill="url(#ae)" image-rendering="auto" solid-color="#000000" style="isolation:auto;mix-blend-mode:normal"/>
<path d="m552.79 964.48c-12.325 14.688-25.986 28.35-40.675 40.675-14.688 12.325-30.515 23.407-47.12 32.994-16.605 9.5871-34.115 17.752-52.133 24.31-18.018 6.558-36.68 11.558-55.563 14.888-18.883 3.3296-38.13 5.0134-57.304 5.0134-19.174-9e-13 -38.421-1.6839-57.304-5.0134-18.883-3.3296-37.545-8.33-55.563-14.888-18.018-6.558-35.528-14.723-52.133-24.31-16.605-9.5871-32.432-20.669-47.12-32.994-14.688-12.325-28.35-25.986-40.675-40.675-12.325-14.688-23.407-30.515-32.994-47.12-9.5871-16.605-17.752-34.115-24.31-52.133-6.558-18.018-11.558-36.68-14.888-55.563-3.3296-18.883-5.0134-38.13-5.0134-57.304 0-19.174 1.6839-38.421 5.0134-57.304 3.3296-18.883 8.33-37.545 14.888-55.563 6.558-18.018 14.723-35.528 24.31-52.133 9.5871-16.605 20.669-32.432 32.994-47.12l252.79 212.12z" color="#000000" color-rendering="auto" fill="url(#ad)" image-rendering="auto" solid-color="#000000" style="isolation:auto;mix-blend-mode:normal"/>
<path d="m512.12 1005.2c-14.688 12.325-30.515 23.407-47.12 32.994-16.605 9.5871-34.115 17.752-52.133 24.31-18.018 6.558-36.68 11.558-55.563 14.888-18.883 3.3296-38.13 5.0134-57.304 5.0134-19.174 0-38.421-1.6839-57.304-5.0134-18.883-3.3296-37.545-8.33-55.563-14.888-18.018-6.558-35.528-14.723-52.133-24.31-16.605-9.5871-32.432-20.669-47.12-32.994-14.688-12.325-28.35-25.986-40.675-40.675-12.325-14.688-23.407-30.515-32.994-47.12-9.5871-16.605-17.752-34.115-24.31-52.133-6.558-18.018-11.558-36.68-14.888-55.563-3.3296-18.883-5.0134-38.13-5.0134-57.304 9.1e-13 -19.174 1.6839-38.421 5.0134-57.304 3.3296-18.883 8.33-37.545 14.888-55.563 6.558-18.018 14.723-35.528 24.31-52.133 9.5871-16.605 20.669-32.432 32.994-47.12 12.325-14.688 25.986-28.35 40.675-40.675l212.12 252.79z" color="#000000" color-rendering="auto" fill="url(#ac)" image-rendering="auto" solid-color="#000000" style="isolation:auto;mix-blend-mode:normal"/>
<path d="m465 1038.2c-16.605 9.5871-34.115 17.752-52.133 24.31-18.018 6.558-36.68 11.558-55.563 14.888-18.883 3.3296-38.13 5.0134-57.304 5.0134-19.174 0-38.421-1.6839-57.304-5.0134-18.883-3.3296-37.545-8.33-55.563-14.888-18.018-6.558-35.528-14.723-52.133-24.31-16.605-9.5871-32.432-20.669-47.12-32.994-14.688-12.325-28.35-25.986-40.675-40.675-12.325-14.688-23.407-30.515-32.994-47.12-9.5871-16.605-17.752-34.115-24.31-52.133-6.558-18.018-11.558-36.68-14.888-55.563-3.3296-18.883-5.0134-38.13-5.0134-57.304 0-19.174 1.6839-38.421 5.0134-57.304 3.3296-18.883 8.33-37.545 14.888-55.563 6.558-18.018 14.723-35.528 24.31-52.133 9.5871-16.605 20.669-32.432 32.994-47.12 12.325-14.688 25.986-28.35 40.675-40.675 14.688-12.325 30.515-23.407 47.12-32.994l165 285.79z" color="#000000" color-rendering="auto" fill="url(#ab)" image-rendering="auto" solid-color="#000000" style="isolation:auto;mix-blend-mode:normal"/>
<path d="m412.87 1062.5c-18.018 6.558-36.68 11.558-55.563 14.888-18.883 3.3296-38.13 5.0134-57.304 5.0134-19.174 9e-13 -38.421-1.6839-57.304-5.0134-18.883-3.3296-37.545-8.33-55.563-14.888-18.018-6.558-35.528-14.723-52.133-24.31-16.605-9.5871-32.432-20.669-47.12-32.994-14.688-12.325-28.35-25.986-40.675-40.675-12.325-14.688-23.407-30.515-32.994-47.12-9.5871-16.605-17.752-34.115-24.31-52.133-6.558-18.018-11.558-36.68-14.888-55.563-3.3296-18.883-5.0134-38.13-5.0134-57.304-1.82e-12 -19.174 1.6839-38.421 5.0134-57.304 3.3296-18.883 8.33-37.545 14.888-55.563 6.558-18.018 14.723-35.528 24.31-52.133 9.5871-16.605 20.669-32.432 32.994-47.12 12.325-14.688 25.986-28.35 40.675-40.675 14.688-12.325 30.515-23.407 47.12-32.994 16.605-9.5871 34.115-17.752 52.133-24.31l112.87 310.1z" color="#000000" color-rendering="auto" fill="url(#aa)" image-rendering="auto" solid-color="#000000" style="isolation:auto;mix-blend-mode:normal"/>
<path d="m357.3 1077.3c-18.883 3.3296-38.13 5.0134-57.304 5.0134-19.174-2e-12 -38.421-1.6839-57.304-5.0134-18.883-3.3296-37.545-8.33-55.563-14.888-18.018-6.558-35.528-14.723-52.133-24.31-16.605-9.5871-32.432-20.669-47.12-32.994-14.688-12.325-28.35-25.986-40.675-40.675-12.325-14.688-23.407-30.515-32.994-47.12-9.5871-16.605-17.752-34.115-24.31-52.133-6.558-18.018-11.558-36.68-14.888-55.563-3.3296-18.883-5.0134-38.13-5.0134-57.304 0-19.174 1.6839-38.421 5.0134-57.304 3.3296-18.883 8.33-37.545 14.888-55.563 6.558-18.018 14.723-35.528 24.31-52.133 9.5871-16.605 20.669-32.432 32.994-47.12 12.325-14.688 25.986-28.35 40.675-40.675 14.688-12.325 30.515-23.407 47.12-32.994 16.605-9.5871 34.115-17.752 52.133-24.31 18.018-6.558 36.68-11.558 55.563-14.888l57.304 324.99z" color="#000000" color-rendering="auto" fill="url(#z)" image-rendering="auto" solid-color="#000000" style="isolation:auto;mix-blend-mode:normal"/>
<path d="m300 1082.4c-19.174 0-38.421-1.6839-57.304-5.0134-18.883-3.3296-37.545-8.33-55.563-14.888-18.018-6.558-35.528-14.723-52.133-24.31-16.605-9.5871-32.432-20.669-47.12-32.994-14.688-12.325-28.35-25.986-40.675-40.675-12.325-14.688-23.407-30.515-32.994-47.12-9.5871-16.605-17.752-34.115-24.31-52.133-6.558-18.018-11.558-36.68-14.888-55.563-3.3296-18.883-5.0134-38.13-5.0134-57.304 0-19.174 1.6839-38.421 5.0134-57.304 3.3296-18.883 8.33-37.545 14.888-55.563 6.558-18.018 14.723-35.528 24.31-52.133 9.5871-16.605 20.669-32.432 32.994-47.12 12.325-14.688 25.986-28.35 40.675-40.675 14.688-12.325 30.515-23.407 47.12-32.994 16.605-9.5871 34.115-17.752 52.133-24.31 18.018-6.558 36.68-11.558 55.563-14.888 18.883-3.3296 38.13-5.0134 57.304-5.0134v330z" color="#000000" color-rendering="auto" fill="url(#y)" image-rendering="auto" solid-color="#000000" style="isolation:auto;mix-blend-mode:normal"/>
<path d="m242.7 1077.3c-18.883-3.3296-37.545-8.33-55.563-14.888-18.018-6.558-35.528-14.723-52.133-24.31-16.605-9.5871-32.432-20.669-47.12-32.994-14.688-12.325-28.35-25.986-40.675-40.675-12.325-14.688-23.407-30.515-32.994-47.12-9.5871-16.605-17.752-34.115-24.31-52.133-6.558-18.018-11.558-36.68-14.888-55.563-3.3296-18.883-5.0134-38.13-5.0134-57.304 0-19.174 1.6839-38.421 5.0134-57.304 3.3296-18.883 8.33-37.545 14.888-55.563 6.558-18.018 14.723-35.528 24.31-52.133 9.5871-16.605 20.669-32.432 32.994-47.12 12.325-14.688 25.986-28.35 40.675-40.675 14.688-12.325 30.515-23.407 47.12-32.994 16.605-9.5871 34.115-17.752 52.133-24.31 18.018-6.558 36.68-11.558 55.563-14.888 18.883-3.3296 38.13-5.0134 57.304-5.0134 19.174-9e-13 38.421 1.6839 57.304 5.0134l-57.304 324.99z" color="#000000" color-rendering="auto" fill="url(#x)" image-rendering="auto" solid-color="#000000" style="isolation:auto;mix-blend-mode:normal"/>
<path d="m187.13 1062.5c-18.018-6.558-35.528-14.723-52.133-24.31-16.605-9.5871-32.432-20.669-47.12-32.994-14.688-12.325-28.35-25.986-40.675-40.675-12.325-14.688-23.407-30.515-32.994-47.12-9.5871-16.605-17.752-34.115-24.31-52.133-6.558-18.018-11.558-36.68-14.888-55.563-3.3296-18.883-5.0134-38.13-5.0134-57.304 0-19.174 1.6839-38.421 5.0134-57.304 3.3296-18.883 8.33-37.545 14.888-55.563 6.558-18.018 14.723-35.528 24.31-52.133 9.5871-16.605 20.669-32.432 32.994-47.12 12.325-14.688 25.986-28.35 40.675-40.675 14.688-12.325 30.515-23.407 47.12-32.994 16.605-9.5871 34.115-17.752 52.133-24.31 18.018-6.558 36.68-11.558 55.563-14.888 18.883-3.3296 38.13-5.0134 57.304-5.0134 19.174 0 38.421 1.6839 57.304 5.0134 18.883 3.3296 37.545 8.33 55.563 14.888l-112.87 310.1z" color="#000000" color-rendering="auto" fill="url(#w)" image-rendering="auto" solid-color="#000000" style="isolation:auto;mix-blend-mode:normal"/>
<path d="m300 752.36-165 285.79c-16.605-9.5871-32.432-20.669-47.12-32.994-14.688-12.325-28.35-25.986-40.675-40.675-12.325-14.688-23.407-30.515-32.994-47.12-9.5871-16.605-17.752-34.115-24.31-52.133-6.558-18.018-11.558-36.68-14.888-55.563-3.3296-18.883-5.0134-38.13-5.0134-57.304 0-19.174 1.6839-38.421 5.0134-57.304 3.3296-18.883 8.33-37.545 14.888-55.563 6.558-18.018 14.723-35.528 24.31-52.133 9.5871-16.605 20.669-32.432 32.994-47.12 12.325-14.688 25.986-28.35 40.675-40.675 14.688-12.325 30.515-23.407 47.12-32.994 16.605-9.5871 34.115-17.752 52.133-24.31 18.018-6.558 36.68-11.558 55.563-14.888 18.883-3.3296 38.13-5.0134 57.304-5.0134 19.174 0 38.421 1.6839 57.304 5.0134 18.883 3.3296 37.545 8.33 55.563 14.888z" color="#000000" color-rendering="auto" fill="url(#v)" image-rendering="auto" solid-color="#000000" style="isolation:auto;mix-blend-mode:normal"/>
<path d="m300 752.36-212.12 252.79c-14.688-12.325-28.35-25.986-40.675-40.675-12.325-14.688-23.407-30.515-32.994-47.12-9.5871-16.605-17.752-34.115-24.31-52.133-6.558-18.018-11.558-36.68-14.888-55.563-3.3296-18.883-5.0134-38.13-5.0134-57.304 9.1e-13 -19.174 1.6839-38.421 5.0134-57.304 3.3296-18.883 8.33-37.545 14.888-55.563 6.558-18.018 14.723-35.528 24.31-52.133 9.5871-16.605 20.669-32.432 32.994-47.12 12.325-14.688 25.986-28.35 40.675-40.675 14.688-12.325 30.515-23.407 47.12-32.994 16.605-9.5871 34.115-17.752 52.133-24.31 18.018-6.558 36.68-11.558 55.563-14.888 18.883-3.3296 38.13-5.0134 57.304-5.0134 19.174 0 38.421 1.6839 57.304 5.0134 18.883 3.3296 37.545 8.33 55.563 14.888z" color="#000000" color-rendering="auto" fill="url(#u)" image-rendering="auto" solid-color="#000000" style="isolation:auto;mix-blend-mode:normal"/>
<path d="m300 752.36-252.79 212.12c-12.325-14.688-23.407-30.515-32.994-47.12-9.5871-16.605-17.752-34.115-24.31-52.133-6.558-18.018-11.558-36.68-14.888-55.563-3.3296-18.883-5.0134-38.13-5.0134-57.304 0-19.174 1.6839-38.421 5.0134-57.304 3.3296-18.883 8.33-37.545 14.888-55.563 6.558-18.018 14.723-35.528 24.31-52.133 9.5871-16.605 20.669-32.432 32.994-47.12 12.325-14.688 25.986-28.35 40.675-40.675 14.688-12.325 30.515-23.407 47.12-32.994 16.605-9.5871 34.115-17.752 52.133-24.31 18.018-6.558 36.68-11.558 55.563-14.888 18.883-3.3296 38.13-5.0134 57.304-5.0134 19.174 3.8e-12 38.421 1.6839 57.304 5.0134 18.883 3.3296 37.545 8.33 55.563 14.888z" color="#000000" color-rendering="auto" fill="url(#t)" image-rendering="auto" solid-color="#000000" style="isolation:auto;mix-blend-mode:normal"/>
<path d="m300 752.36-285.79 165c-9.5871-16.605-17.752-34.115-24.31-52.133-6.558-18.018-11.558-36.68-14.888-55.563-3.3296-18.883-5.0134-38.13-5.0134-57.304 0-19.174 1.6839-38.421 5.0134-57.304 3.3296-18.883 8.33-37.545 14.888-55.563 6.558-18.018 14.723-35.528 24.31-52.133 9.5871-16.605 20.669-32.432 32.994-47.12 12.325-14.688 25.986-28.35 40.675-40.675 14.688-12.325 30.515-23.407 47.12-32.994 16.605-9.5871 34.115-17.752 52.133-24.31 18.018-6.558 36.68-11.558 55.563-14.888 18.883-3.3296 38.13-5.0134 57.304-5.0134 19.174-1e-12 38.421 1.6839 57.304 5.0134 18.883 3.3296 37.545 8.33 55.563 14.888z" color="#000000" color-rendering="auto" fill="url(#s)" image-rendering="auto" solid-color="#000000" style="isolation:auto;mix-blend-mode:normal"/>
<path d="m300 752.36-310.1 112.87c-6.558-18.018-11.558-36.68-14.888-55.563-3.3296-18.883-5.0134-38.13-5.0134-57.304-9.1e-13 -19.174 1.6839-38.421 5.0134-57.304 3.3296-18.883 8.33-37.545 14.888-55.563 6.558-18.018 14.723-35.528 24.31-52.133 9.5871-16.605 20.669-32.432 32.994-47.12 12.325-14.688 25.986-28.35 40.675-40.675 14.688-12.325 30.515-23.407 47.12-32.994 16.605-9.5871 34.115-17.752 52.133-24.31 18.018-6.558 36.68-11.558 55.563-14.888 18.883-3.3296 38.13-5.0134 57.304-5.0134 19.174 0 38.421 1.6839 57.304 5.0134 18.883 3.3296 37.545 8.33 55.563 14.888z" color="#000000" color-rendering="auto" fill="url(#r)" image-rendering="auto" solid-color="#000000" style="isolation:auto;mix-blend-mode:normal"/>
<path d="m300 752.36-324.99 57.304c-3.3296-18.883-5.0134-38.13-5.0134-57.304 1.82e-12 -19.174 1.6839-38.421 5.0134-57.304 3.3296-18.883 8.33-37.545 14.888-55.563 6.558-18.018 14.723-35.528 24.31-52.133 9.5871-16.605 20.669-32.432 32.994-47.12 12.325-14.688 25.986-28.35 40.675-40.675 14.688-12.325 30.515-23.407 47.12-32.994 16.605-9.5871 34.115-17.752 52.133-24.31 18.018-6.558 36.68-11.558 55.563-14.888 18.883-3.3296 38.13-5.0134 57.304-5.0134 19.174-4.5e-12 38.421 1.6839 57.304 5.0134 18.883 3.3296 37.545 8.33 55.563 14.888z" color="#000000" color-rendering="auto" fill="url(#q)" image-rendering="auto" solid-color="#000000" style="isolation:auto;mix-blend-mode:normal"/>
<path d="m300 752.36h-330c0-19.174 1.6839-38.421 5.0134-57.304 3.3296-18.883 8.33-37.545 14.888-55.563 6.558-18.018 14.723-35.528 24.31-52.133 9.5871-16.605 20.669-32.432 32.994-47.12 12.325-14.688 25.986-28.35 40.675-40.675 14.688-12.325 30.515-23.407 47.12-32.994 16.605-9.5871 34.115-17.752 52.133-24.31 18.018-6.558 36.68-11.558 55.563-14.888 18.883-3.3296 38.13-5.0134 57.304-5.0134 19.174 0 38.421 1.6839 57.304 5.0134 18.883 3.3296 37.545 8.33 55.563 14.888z" color="#000000" color-rendering="auto" fill="url(#p)" image-rendering="auto" solid-color="#000000" style="isolation:auto;mix-blend-mode:normal"/>
<path d="m300 752.36-324.99-57.304c3.3296-18.883 8.33-37.545 14.888-55.563 6.558-18.018 14.723-35.528 24.31-52.133 9.5871-16.605 20.669-32.432 32.994-47.12 12.325-14.688 25.986-28.35 40.675-40.675 14.688-12.325 30.515-23.407 47.12-32.994 16.605-9.5871 34.115-17.752 52.133-24.31 18.018-6.558 36.68-11.558 55.563-14.888 18.883-3.3296 38.13-5.0134 57.304-5.0134 19.174-3.6e-12 38.421 1.6839 57.304 5.0134 18.883 3.3296 37.545 8.33 55.563 14.888z" color="#000000" color-rendering="auto" fill="url(#o)" image-rendering="auto" solid-color="#000000" style="isolation:auto;mix-blend-mode:normal"/>
<path d="m300 752.36-310.1-112.87c6.558-18.018 14.723-35.528 24.31-52.133 9.5871-16.605 20.669-32.432 32.994-47.12 12.325-14.688 25.986-28.35 40.675-40.675 14.688-12.325 30.515-23.407 47.12-32.994 16.605-9.5871 34.115-17.752 52.133-24.31 18.018-6.558 36.68-11.558 55.563-14.888 18.883-3.3296 38.13-5.0134 57.304-5.0134 19.174 0 38.421 1.6839 57.304 5.0134 18.883 3.3296 37.545 8.33 55.563 14.888z" color="#000000" color-rendering="auto" fill="url(#n)" image-rendering="auto" solid-color="#000000" style="isolation:auto;mix-blend-mode:normal"/>
<path d="m14.212 587.36c9.5871-16.605 20.669-32.432 32.994-47.12 12.325-14.688 25.986-28.35 40.675-40.675 14.688-12.325 30.515-23.407 47.12-32.994 16.605-9.5871 34.115-17.752 52.133-24.31 18.018-6.558 36.68-11.558 55.563-14.888 18.883-3.3296 38.13-5.0134 57.304-5.0134 19.174 0 38.421 1.6839 57.304 5.0134 18.883 3.3296 37.545 8.33 55.563 14.888l-112.87 310.1z" color="#000000" color-rendering="auto" fill="url(#m)" image-rendering="auto" solid-color="#000000" style="isolation:auto;mix-blend-mode:normal"/>
<path d="m47.205 540.24c12.325-14.688 25.986-28.35 40.675-40.675 14.688-12.325 30.515-23.407 47.12-32.994 16.605-9.5871 34.115-17.752 52.133-24.31 18.018-6.558 36.68-11.558 55.563-14.888 18.883-3.3296 38.13-5.0134 57.304-5.0134 19.174 2.3e-12 38.421 1.6839 57.304 5.0134 18.883 3.3296 37.545 8.33 55.563 14.888l-112.87 310.1z" color="#000000" color-rendering="auto" fill="url(#l)" image-rendering="auto" solid-color="#000000" style="isolation:auto;mix-blend-mode:normal"/>
<path d="m300 752.36-212.12-252.79c14.688-12.325 30.515-23.407 47.12-32.994 16.605-9.5871 34.115-17.752 52.133-24.31 18.018-6.558 36.68-11.558 55.563-14.888 18.883-3.3296 38.13-5.0134 57.304-5.0134 19.174 1.1e-12 38.421 1.6839 57.304 5.0134 18.883 3.3296 37.545 8.33 55.563 14.888z" color="#000000" color-rendering="auto" fill="url(#k)" image-rendering="auto" solid-color="#000000" style="isolation:auto;mix-blend-mode:normal"/>
<path d="m300 752.36-165-285.79c16.605-9.5871 34.115-17.752 52.133-24.31 18.018-6.558 36.68-11.558 55.563-14.888 18.883-3.3296 38.13-5.0134 57.304-5.0134 19.174-1.4e-12 38.421 1.6839 57.304 5.0134 18.883 3.3296 37.545 8.33 55.563 14.888z" color="#000000" color-rendering="auto" fill="url(#j)" image-rendering="auto" solid-color="#000000" style="isolation:auto;mix-blend-mode:normal"/>
<path d="m300 752.36-112.87-310.1c18.018-6.558 36.68-11.558 55.563-14.888 18.883-3.3296 38.13-5.0134 57.304-5.0134 19.174-9e-13 38.421 1.6839 57.304 5.0134 18.883 3.3296 37.545 8.33 55.563 14.888z" color="#000000" color-rendering="auto" fill="url(#i)" image-rendering="auto" solid-color="#000000" style="isolation:auto;mix-blend-mode:normal"/>
<path d="m300 752.36-57.304-324.99c18.883-3.3296 38.13-5.0134 57.304-5.0134 19.174 2.3e-12 38.421 1.6839 57.304 5.0134 18.883 3.3296 37.545 8.33 55.563 14.888 18.018 6.558 35.528 14.723 52.133 24.31z" color="#000000" color-rendering="auto" fill="url(#h)" image-rendering="auto" solid-color="#000000" style="isolation:auto;mix-blend-mode:normal"/>
<path d="m300 752.36v-330c19.174 0 38.421 1.6839 57.304 5.0134 18.883 3.3296 37.545 8.33 55.563 14.888 18.018 6.558 35.528 14.723 52.133 24.31 16.605 9.5871 32.432 20.669 47.12 32.994 14.688 12.325 28.35 25.986 40.675 40.675z" color="#000000" color-rendering="auto" fill="url(#g)" image-rendering="auto" solid-color="#000000" style="isolation:auto;mix-blend-mode:normal"/>
<path d="m300 752.36 57.304-324.99c18.883 3.3296 37.545 8.33 55.563 14.888 18.018 6.558 35.528 14.723 52.133 24.31 16.605 9.5871 32.432 20.669 47.12 32.994 14.688 12.325 28.35 25.986 40.675 40.675z" color="#000000" color-rendering="auto" fill="url(#f)" image-rendering="auto" solid-color="#000000" style="isolation:auto;mix-blend-mode:normal"/>
<path d="m300 752.36 112.87-310.1c18.018 6.558 35.528 14.723 52.133 24.31 16.605 9.5871 32.432 20.669 47.12 32.994 14.688 12.325 28.35 25.986 40.675 40.675z" color="#000000" color-rendering="auto" fill="url(#e)" image-rendering="auto" solid-color="#000000" style="isolation:auto;mix-blend-mode:normal"/>
<path d="m300 752.36 165-285.79c16.605 9.5871 32.432 20.669 47.12 32.994 14.688 12.325 28.35 25.986 40.675 40.675z" color="#000000" color-rendering="auto" fill="url(#d)" image-rendering="auto" solid-color="#000000" style="isolation:auto;mix-blend-mode:normal"/>
<path d="m300 752.36 212.12-252.79c14.688 12.325 28.35 25.986 40.675 40.675 6.1625 7.3442 12.014 14.973 17.524 22.841z" color="#000000" color-rendering="auto" fill="url(#c)" image-rendering="auto" solid-color="#000000" style="isolation:auto;mix-blend-mode:normal"/>
<path d="m300 752.36 252.79-212.12c12.325 14.688 23.407 30.515 32.994 47.12z" color="#000000" color-rendering="auto" fill="url(#b)" image-rendering="auto" solid-color="#000000" style="isolation:auto;mix-blend-mode:normal"/>
</g>
<path d="m-30 422.36h660v660h-660zm330 630c-17.431 0-34.928-1.5308-52.094-4.5577-17.166-3.0269-34.132-7.5727-50.512-13.535-16.38-5.9618-32.298-13.385-47.394-22.1-15.096-8.7156-29.483-18.79-42.836-29.994-13.353-11.205-25.773-23.624-36.977-36.977-11.205-13.353-21.279-27.74-29.994-42.836-8.7156-15.096-16.138-31.014-22.1-47.394-5.9618-16.38-10.508-33.345-13.535-50.512-3.0269-17.166-4.5577-34.663-4.5577-52.094 0-17.431 1.5308-34.928 4.5577-52.094 3.0269-17.166 7.5727-34.132 13.535-50.512 5.9618-16.38 13.385-32.298 22.1-47.394 8.7156-15.096 18.79-29.483 29.994-42.836 11.205-13.353 23.624-25.773 36.977-36.977 13.353-11.205 27.74-21.279 42.836-29.994 15.096-8.7156 31.014-16.138 47.394-22.1 16.38-5.9618 33.345-10.508 50.512-13.535 17.166-3.0269 34.663-4.5577 52.094-4.5577 17.431 0 34.928 1.5308 52.094 4.5577 17.166 3.0269 34.132 7.5727 50.512 13.535 16.38 5.9618 32.298 13.385 47.394 22.1 15.096 8.7156 29.483 18.79 42.836 29.994 13.353 11.205 25.773 23.624 36.977 36.977 11.205 13.353 21.279 27.74 29.994 42.836 8.7156 15.096 16.138 31.014 22.1 47.394 5.9618 16.38 10.508 33.345 13.535 50.512 3.0269 17.166 4.5577 34.663 4.5577 52.094s-1.5308 34.928-4.5577 52.094c-3.0269 17.166-7.5727 34.132-13.535 50.512-5.9618 16.38-13.385 32.298-22.1 47.394-8.7156 15.096-18.79 29.483-29.994 42.836-11.205 13.353-23.624 25.773-36.977 36.977-13.353 11.205-27.74 21.279-42.836 29.994-15.096 8.7156-31.014 16.138-47.394 22.1-16.38 5.9618-33.345 10.508-50.512 13.535-17.166 3.0269-34.663 4.5577-52.094 4.5577z" color="#000000" color-rendering="auto" fill="none" image-rendering="auto" solid-color="#000000" style="isolation:auto;mix-blend-mode:normal"/>
</g>
</svg>
